# xmcd
#
# Track frame offsets:
#	150
#	2389
#	30309
#	49574
#	69320
#	88276
#	111246
#	130767
#	152915
#	175976
#	199133
#	203889
#	225320
#
# Disc length: 3499
#
# Revision: 1
# Processed by: cddbd v1.5.1PL0 Copyright (c) Steve Scherf et al.
# Submitted via: dBpowerAMP V4.0
# Normalized: r0:TRMNUM
#
DISCID=9f0da90d
DTITLE=Riverside - Live on Tap
DYEAR=1900
DGENRE=Country
TTITLE0=#62
TTITLE1=Blue
TTITLE2=Moonlight Girl
TTITLE3=Dancin'
TTITLE4=Twisted
TTITLE5=Everybody Knows
TTITLE6=Crazy Tonight
TTITLE7=Annie's Coast
TTITLE8=Mama
TTITLE9=Sunburn
TTITLE10=Ronin's Prayer
TTITLE11=Eastern Rain
TTITLE12=Mexico
EXTD=Riverside - Local Central Texas Band. A little East of Country, and just south of Rock and Roll
EXTT0=
EXTT1=
EXTT2=
EXTT3=
EXTT4=
EXTT5=
EXTT6=
EXTT7=
EXTT8=
EXTT9=
EXTT10=
EXTT11=
EXTT12=
PLAYORDER=
